<svg width="157" height="26" viewBox="0 0 157 26" fill="none" xmlns="http://www.w3.org/2000/svg">
  <path d="M12.8291 9.28717C13.575 9.27454 14.3078 9.48069 14.9343 9.87935C15.5607 10.278 16.0525 10.8512 16.3468 11.5258C16.6412 12.2005 16.7249 12.9461 16.5873 13.6677C16.4497 14.3893 16.0969 15.0543 15.574 15.5779C15.0511 16.1016 14.3817 16.4602 13.651 16.6082C12.9203 16.7561 12.1614 16.6867 11.471 16.4087C10.7805 16.1307 10.1897 15.6568 9.77387 15.0472C9.35801 14.4377 9.13588 13.7201 9.13577 12.9859C9.13203 12.0148 9.51791 11.0815 10.2095 10.3889C10.9011 9.69626 11.8426 9.30033 12.8291 9.28717Z" fill="#F7A600"/>
  <path d="M0.909382 17.7247C-0.303127 14.6873 -0.303127 11.3108 0.909382 8.27344L9.13637 12.9991L0.909382 17.7247Z" fill="#F7A600"/>
  <path d="M12.8285 4.77084C15.0459 4.77084 17.1725 5.63782 18.7405 7.18105C20.3085 8.72428 21.1893 10.8173 21.1893 12.9998C21.1893 15.1823 20.3085 17.2753 18.7405 18.8186C17.1725 20.3618 15.0459 21.2288 12.8285 21.2288C11.3751 21.2249 9.94877 20.8424 8.69432 20.1201C7.43987 19.3978 6.40208 18.3615 5.68642 17.1166L1.71143 19.3885C2.82682 21.3259 4.44224 22.9391 6.39433 24.0649C8.34643 25.1907 10.566 25.7892 12.8285 25.7999C16.2777 25.7999 19.5856 24.4513 22.0246 22.0508C24.4636 19.6504 25.8338 16.3946 25.8338 12.9998C25.8338 9.60501 24.4636 6.34925 22.0246 3.94877C19.5856 1.54828 16.2777 0.199707 12.8285 0.199707C10.5673 0.208994 8.34872 0.805434 6.39675 1.92878C4.44477 3.05212 2.82858 4.66258 1.71143 6.59748L5.6818 8.86942C6.40225 7.62926 7.44237 6.59813 8.69717 5.88011C9.95196 5.16208 11.377 4.78259 12.8285 4.77993" fill="#004388"/>
  <path d="M39.0839 10.7734C39.0839 9.41026 39.9103 9.16489 41.2399 9.16489C43.202 9.16489 43.4329 9.79194 43.4329 11.664H40.1042V14.0904H43.4329C43.4329 15.9762 43.202 16.8168 41.2399 16.8168C39.7856 16.8168 39.0839 16.7123 39.0839 15.1764V14.7947H35.4736V15.3491C35.4736 19.1069 37.5419 19.684 41.046 19.684C44.624 19.684 47.0477 19.4386 47.0477 14.6539V11.2778C47.0477 7.08834 44.961 6.30225 41.106 6.30225C37.6204 6.30225 35.4782 8.04709 35.4782 10.7734H39.0839Z" fill="#004388"/>
  <path d="M52.1547 15.8894H55.2572C58.9182 15.8894 59.74 14.7352 59.74 11.0501C59.74 7.62859 58.5166 6.41992 55.2572 6.41992H48.6553V19.5199H52.1547V15.8894ZM52.1547 9.28711H54.5554C55.9404 9.28711 56.1343 9.74149 56.1343 11.1047C56.1343 12.7995 55.8897 13.0449 54.5554 13.0449H52.1547V9.28711Z" fill="#004388"/>
  <path d="M72.8293 9.45977H76.3657V6.41992H65.7842V9.45977H69.3206V19.5199H72.8293V9.45977Z" fill="#004388"/>
  <path d="M81.0451 9.28711H87.0191V6.41992H77.541V19.5199H87.1438V16.6573H81.0451V14.1082H86.6498V11.6772H81.0451V9.28711Z" fill="#004388"/>
  <path d="M90.5239 6.41992V15.0169C90.5239 16.3074 90.1915 16.7981 89.2312 16.7981C88.8697 16.8189 88.5072 16.7774 88.1602 16.6754V19.5063C88.7484 19.6208 89.3473 19.6741 89.9468 19.6653C92.6107 19.6653 93.8572 17.825 93.8572 14.9624V9.45977H97.6568V19.5199H101.161V6.41992H90.5239Z" fill="#004388"/>
  <path d="M106.632 9.28711H112.606V6.41992H103.123V19.5199H112.73V16.6573H106.632V14.1082H112.236V11.6772H106.632V9.28711Z" fill="#004388"/>
  <path d="M118.216 6.41992H114.712V19.5199H118.216V14.3899H119.264L122.93 19.5199H127.274L122.261 12.8495L126.891 6.41992H122.649L119.264 11.3455H118.216V6.41992Z" fill="#004388"/>
  <path d="M133.044 19.6972C136.603 19.6972 139.124 18.8566 139.124 14.8216V11.1047C139.124 7.06524 136.603 6.28369 133.044 6.28369C129.484 6.28369 126.945 7.08341 126.945 11.1047V14.8035C126.945 18.8384 129.471 19.679 133.026 19.679L133.044 19.6972ZM133.026 16.6392C131.202 16.6392 130.556 16.3756 130.556 14.4218V11.4683C130.556 9.51438 131.202 9.319 133.026 9.319C134.849 9.319 135.495 9.52802 135.495 11.4683V14.4218C135.495 16.3756 134.849 16.6392 133.026 16.6392Z" fill="#004388"/>
  <path d="M151.302 6.41992L148.92 14.6489H148.795L146.293 6.41992H140.734V19.5199H144.243L143.888 9.47795L144.049 9.44614L147.359 19.5199H150.393L153.689 9.44614L153.846 9.47795L153.495 19.5199H156.999V6.41992H151.302Z" fill="#004388"/>
  <path d="M63.0785 14.771C62.6649 14.5751 62.3456 14.2278 62.1886 13.8033C62.0316 13.3789 62.0494 12.9108 62.2382 12.4991C62.3322 12.2935 62.4669 12.1084 62.6344 11.9547C62.802 11.8009 62.999 11.6817 63.214 11.6038C63.4289 11.5259 63.6575 11.4911 63.8863 11.5012C64.1152 11.5114 64.3396 11.5664 64.5466 11.663C64.9601 11.859 65.2794 12.2062 65.4364 12.6307C65.5934 13.0552 65.5756 13.5232 65.3868 13.9349C65.2929 14.1405 65.1581 14.3256 64.9906 14.4793C64.8231 14.6331 64.626 14.7524 64.4111 14.8302C64.1961 14.9081 63.9675 14.9429 63.7387 14.9328C63.5099 14.9226 63.2854 14.8676 63.0785 14.771Z" fill="#004388"/>
</svg>
