<svg width="196" height="20" fill="none" xmlns="http://www.w3.org/2000/svg"><path d="M.241 17.026L8.956 2.037a1.734 1.734 0 013.003 0l8.713 14.987c.68 1.168-.156 2.64-1.502 2.64H1.743C.399 19.667-.44 18.195.24 17.026zM28.547.001c-3.956-.067-7.394 2.203-9.046 5.53a2.932 2.932 0 00.095 2.78l6.316 10.863c.228.393.624.661 1.074.727.455.065.92.099 1.392.099 5.465 0 9.896-4.454 9.92-9.955C38.321 4.6 33.945.09 28.547 0zM53.54.333H40.078c-.851 0-1.342.968-.846 1.665a13.76 13.76 0 012.56 8.062 13.784 13.784 0 01-2.543 7.932c-.498.7-.011 1.675.844 1.675H53.54c1.213 0 2.198-.991 2.198-2.216V2.549A2.209 2.209 0 0053.541.333zM111.726 12.449c-1.344 0-2.205-1.074-2.205-2.406 0-1.331.828-2.424 2.205-2.424 1.378 0 2.189 1.09 2.189 2.424 0 1.334-.844 2.406-2.189 2.406zm.569-7.288c-1.276 0-2.275.537-2.809 1.23v-.97h-2.499v12.117h2.619v-3.791c.568.675 1.602 1.16 2.637 1.16 2.723 0 4.325-2.009 4.325-4.9 0-2.716-1.637-4.846-4.273-4.846zm13.234.226l-2.43 6.249h-.345l-2.395-6.249h-3.033l3.653 8.516.483.796-.19.278h-2.981v2.562h1.723c2.189 0 3.566-.986 4.498-3.185l3.808-8.965h-2.791v-.002zm-22.108 6.144c-.931 0-1.69.761-1.69 1.697 0 .953.758 1.714 1.69 1.714.948 0 1.706-.76 1.706-1.714a1.7 1.7 0 00-1.706-1.697zm-6.548-6.144l-2.534 3.722h-.277l-2.499-3.722h-3.102v9.312h2.584V9.575h.362l2.137 3.168h1.24l2.172-3.168h.327V14.7h2.584V5.387h-2.994zm-15.01 6.993c-1.344 0-2.172-1.039-2.172-2.337 0-1.28.81-2.32 2.172-2.32 1.38 0 2.189 1.04 2.189 2.32-.002 1.298-.845 2.337-2.189 2.337zm0-7.219c-3.05 0-4.877 2.199-4.877 4.882 0 2.7 1.896 4.882 4.877 4.882 2.998 0 4.877-2.182 4.877-4.882 0-2.683-1.81-4.882-4.877-4.882zM70.437 7.757l1.67 4.45h-3.636l1.654-4.45h.312zm4.377 4.45l-2.6-6.82h-3.948l-2.602 6.82h-1.5v4.655h2.498V14.7h7.03v2.164h2.516v-4.657h-1.394z" fill="#FF312C"/><path d="M142.889 3.335l-1.543.173c-.566.052-1.144.11-1.736.174-1.118.128-1.98.463-2.584 1.003-.592.527-.887 1.408-.887 2.642.321-.514.784-.913 1.388-1.196a4.578 4.578 0 011.929-.424c1.17 0 2.109.38 2.816 1.138.707.746 1.061 1.858 1.061 3.337 0 1.427-.405 2.571-1.215 3.433-.81.848-1.929 1.273-3.356 1.273-1.428 0-2.553-.425-3.376-1.273-.823-.849-1.234-2.16-1.234-3.935V7.79c0-1.093.122-2.012.366-2.758.245-.759.592-1.37 1.042-1.832a4.325 4.325 0 011.659-1.061 9.184 9.184 0 012.198-.502 381.45 381.45 0 011.775-.173l1.446-.174.251 2.045zm-4.089 9.759c.759 0 1.344-.257 1.755-.772.412-.527.618-1.227.618-2.102 0-.887-.2-1.569-.598-2.044-.399-.476-.965-.714-1.698-.714-.694 0-1.292.212-1.793.637-.489.411-.733.945-.733 1.6v.405c0 .99.218 1.736.655 2.238.438.501 1.036.752 1.794.752zM147.68 14.695h-2.257V5.36h2.141v6.422l4.012-6.422h2.333v9.335h-2.16V8.234l-4.069 6.46zM160.182 13.133c.643 0 1.125-.116 1.447-.348.321-.231.482-.54.482-.925 0-.36-.129-.63-.386-.81-.244-.18-.649-.27-1.215-.27h-1.582V9.178h1.543c.515 0 .888-.097 1.119-.29.231-.193.347-.456.347-.79 0-.36-.135-.643-.405-.849-.27-.206-.694-.309-1.273-.309-.656 0-1.17.155-1.543.463a2.154 2.154 0 00-.752 1.157l-2.025-.366c.206-.951.688-1.69 1.446-2.218.759-.54 1.717-.81 2.874-.81 1.183 0 2.109.238 2.778.714.681.462 1.022 1.125 1.022 1.986 0 .476-.116.894-.347 1.254-.232.36-.573.623-1.023.79.489.142.875.393 1.158.753.282.36.424.816.424 1.37 0 .886-.36 1.587-1.08 2.101-.72.502-1.723.753-3.009.753-1.234 0-2.224-.258-2.97-.772-.733-.527-1.183-1.286-1.35-2.276l2.063-.366c.103.476.335.874.695 1.196.36.308.881.463 1.562.463zM166.292 14.695V5.36h2.218v3.568h4.051V5.36h2.218v9.335h-2.218v-3.8h-4.051v3.8h-2.218zM185.545 10.529h-6.596c.052.848.289 1.491.714 1.928.424.438.964.656 1.62.656.604 0 1.074-.141 1.408-.424.347-.296.591-.63.733-1.003l1.928.386c-.205.758-.649 1.42-1.33 1.986-.669.553-1.595.83-2.778.83-1.298 0-2.359-.412-3.182-1.235-.81-.823-1.215-2.031-1.215-3.626 0-.797.116-1.498.347-2.102.231-.617.546-1.125.945-1.524.411-.411.894-.72 1.447-.925a5.096 5.096 0 011.793-.309c1.248 0 2.257.399 3.028 1.196.785.784 1.177 1.883 1.177 3.298 0 .167-.007.334-.019.501 0 .155-.007.277-.02.367zm-4.166-3.588c-.617 0-1.138.18-1.562.54-.424.348-.694.868-.81 1.563h4.532c-.038-.605-.244-1.106-.617-1.505-.373-.398-.887-.598-1.543-.598zM193.633 11.416l2.064.347c-.18.926-.618 1.678-1.312 2.257-.681.578-1.633.868-2.854.868a5.154 5.154 0 01-1.813-.309 3.932 3.932 0 01-1.428-.907c-.385-.398-.694-.9-.926-1.504-.218-.617-.327-1.33-.327-2.14 0-.798.109-1.499.327-2.103.232-.617.541-1.125.926-1.524.399-.411.875-.72 1.428-.925a5.156 5.156 0 011.813-.309c1.221 0 2.179.29 2.873.868.695.579 1.132 1.33 1.312 2.256l-2.064.328a2.49 2.49 0 00-.656-1.099c-.308-.321-.79-.482-1.446-.482-.733 0-1.305.27-1.717.81-.398.527-.598 1.254-.598 2.18 0 .925.2 1.658.598 2.198.412.527.984.79 1.717.79.656 0 1.138-.16 1.446-.481.322-.322.534-.695.637-1.119z" fill="#A92424"/></svg>